<svg width="70" height="70" viewBox="0 0 70 70" fill="none" xmlns="http://www.w3.org/2000/svg">
<path d="M0 13.125C0 10.7092 2.23906 8.75 5 8.75H65C67.7656 8.75 70 10.7092 70 13.125C70 15.5449 67.7656 17.5 65 17.5H5C2.23906 17.5 0 15.5449 0 13.125ZM0 35C0 32.5801 2.23906 30.625 5 30.625H65C67.7656 30.625 70 32.5801 70 35C70 37.4199 67.7656 39.375 65 39.375H5C2.23906 39.375 0 37.4199 0 35ZM65 61.25H5C2.23906 61.25 0 59.2949 0 56.875C0 54.4551 2.23906 52.5 5 52.5H65C67.7656 52.5 70 54.4551 70 56.875C70 59.2949 67.7656 61.25 65 61.25Z" fill="white"/>
</svg>